<svg width="142" height="142" viewBox="0 0 142 142" fill="none" xmlns="http://www.w3.org/2000/svg">
<path d="M71 1C57.1553 1 43.6215 5.10543 32.1101 12.7971C20.5987 20.4888 11.6266 31.4213 6.32846 44.2122C1.03033 57.003 -0.355903 71.0776 2.34506 84.6563C5.04603 98.235 11.7129 110.708 21.5026 120.497C31.2922 130.287 43.765 136.954 57.3437 139.655C70.9224 142.356 84.997 140.97 97.7878 135.672C110.579 130.373 121.511 121.401 129.203 109.89C136.895 98.3785 141 84.8447 141 71C141 52.4348 133.625 34.6301 120.497 21.5025C107.37 8.37498 89.5652 1 71 1Z" fill="url(#paint0_radial_4085_1115)" stroke="#2E2E2E" stroke-width="0.680734" stroke-miterlimit="10"/>
<path d="M71.0001 5.61744C57.9417 5.61744 45.1764 9.48972 34.3187 16.7446C23.461 23.9995 14.9985 34.3112 10.0012 46.3756C5.00395 58.4401 3.69644 71.7154 6.24402 84.523C8.7916 97.3305 15.0798 109.095 24.3136 118.329C33.5473 127.562 45.3118 133.851 58.1193 136.398C70.9269 138.946 84.2022 137.638 96.2667 132.641C108.331 127.644 118.643 119.181 125.898 108.324C133.153 97.4659 137.025 84.7006 137.025 71.6422C137.025 62.9717 135.317 54.3861 131.999 46.3756C128.681 38.3651 123.818 31.0866 117.687 24.9556C111.556 18.8247 104.277 13.9613 96.2667 10.6433C88.2562 7.32522 79.6706 5.61744 71.0001 5.61744Z" fill="black" stroke="#07070B" stroke-width="0.642202" stroke-miterlimit="10"/>
<path d="M71.0001 3.29909C57.9417 3.29909 45.1764 7.17137 34.3187 14.4263C23.461 21.6812 14.9985 31.9928 10.0012 44.0573C5.00395 56.1217 3.69644 69.3971 6.24402 82.2046C8.7916 95.0122 15.0798 106.777 24.3136 116.01C33.5473 125.244 45.3118 131.532 58.1193 134.08C70.9269 136.628 84.2022 135.32 96.2667 130.323C108.331 125.325 118.643 116.863 125.898 106.005C133.153 95.1475 137.025 82.3823 137.025 69.3238C137.025 60.6533 135.317 52.0677 131.999 44.0573C128.681 36.0468 123.818 28.7683 117.687 22.6373C111.556 16.5063 104.277 11.643 96.2667 8.32492C88.2562 5.00687 79.6706 3.29909 71.0001 3.29909ZM71.0001 121.464C60.6877 121.464 50.6069 118.406 42.0325 112.677C33.4581 106.948 26.7751 98.8045 22.8287 89.2771C18.8823 79.7497 17.8498 69.266 19.8616 59.1518C21.8735 49.0375 26.8394 39.747 34.1313 32.455C41.4233 25.1631 50.7138 20.1972 60.828 18.1853C70.9423 16.1735 81.426 17.2061 90.9534 21.1524C100.481 25.0988 108.624 31.7818 114.353 40.3562C120.082 48.9306 123.14 59.0114 123.14 69.3238C123.14 83.1523 117.647 96.4144 107.869 106.193C98.0907 115.971 84.8286 121.464 71.0001 121.464Z" fill="url(#paint1_radial_4085_1115)" stroke="#252532" stroke-width="0.642202" stroke-miterlimit="10"/>
<path d="M71 121.464C60.6876 121.464 50.6068 118.406 42.0324 112.677C33.4579 106.948 26.775 98.8045 22.8286 89.2771C18.8822 79.7497 17.8497 69.266 19.8615 59.1518C21.8734 49.0375 26.8392 39.747 34.1312 32.4551C41.4232 25.1631 50.7137 20.1972 60.8279 18.1854C70.9422 16.1735 81.4258 17.2061 90.9532 21.1525C100.481 25.0988 108.624 31.7818 114.353 40.3562C120.082 48.9307 123.14 59.0115 123.14 69.3239C123.14 83.1524 117.647 96.4145 107.869 106.193C98.0906 115.971 84.8285 121.464 71 121.464Z" fill="url(#paint2_radial_4085_1115)" stroke="#20202C" stroke-width="0.712844" stroke-miterlimit="10"/>
<path opacity="0.06" d="M71 119.467C57.4503 119.465 44.4338 114.188 34.7082 104.753C24.9826 95.3191 19.3121 82.469 18.8982 68.9257C18.8982 69.4651 18.8596 69.9982 18.8596 70.5312C18.8596 77.3783 20.2083 84.1585 22.8286 90.4844C25.4489 96.8104 29.2895 102.558 34.1312 107.4C38.9729 112.242 44.7208 116.082 51.0467 118.703C57.3727 121.323 64.1528 122.672 71 122.672C77.8471 122.672 84.6273 121.323 90.9532 118.703C97.2792 116.082 103.027 112.242 107.869 107.4C112.71 102.558 116.551 96.8104 119.171 90.4844C121.792 84.1585 123.14 77.3783 123.14 70.5312C123.14 69.9982 123.14 69.4651 123.102 68.9257C122.688 82.469 117.017 95.3191 107.292 104.753C97.5662 114.188 84.5496 119.465 71 119.467Z" fill="white"/>
<g style="mix-blend-mode:multiply">
<path d="M71 124.104C57.4514 124.102 44.4358 118.825 34.7103 109.392C24.9849 99.9595 19.3137 87.111 18.8982 73.5688C18.8982 74.1018 18.8596 74.6349 18.8596 75.1743C18.8596 89.0028 24.353 102.265 34.1312 112.043C43.9094 121.821 57.1715 127.315 71 127.315C84.8285 127.315 98.0906 121.821 107.869 112.043C117.647 102.265 123.14 89.0028 123.14 75.1743C123.14 74.6349 123.14 74.1018 123.102 73.5688C122.686 87.111 117.015 99.9595 107.29 109.392C97.5642 118.825 84.5485 124.102 71 124.104Z" fill="black"/>
</g>
<g style="mix-blend-mode:multiply">
<path d="M71 18.3459C84.5485 18.3479 97.5642 23.6242 107.29 33.0571C117.015 42.49 122.686 55.3385 123.102 68.8807C123.102 68.3477 123.14 67.8147 123.14 67.2752C123.14 53.4468 117.647 40.1846 107.869 30.4064C98.0906 20.6282 84.8285 15.1349 71 15.1349C57.1715 15.1349 43.9094 20.6282 34.1312 30.4064C24.353 40.1846 18.8596 53.4468 18.8596 67.2752C18.8596 67.8147 18.8596 68.3477 18.8982 68.8807C19.3137 55.3385 24.9849 42.49 34.7103 33.0571C44.4358 23.6242 57.4514 18.3479 71 18.3459Z" fill="black"/>
</g>
<g style="mix-blend-mode:color-dodge">
<path d="M71 7.67248C58.8065 7.67248 46.8869 11.2883 36.7484 18.0626C26.6098 24.8369 18.7078 34.4656 14.0416 45.7309C9.37535 56.9962 8.15444 69.3922 10.5333 81.3514C12.9121 93.3106 18.7838 104.296 27.4059 112.918C36.028 121.54 47.0132 127.412 58.9724 129.791C70.9316 132.169 83.3277 130.949 94.593 126.282C105.858 121.616 115.487 113.714 122.261 103.576C129.036 93.437 132.651 81.5173 132.651 69.3238C132.651 52.9729 126.156 37.2916 114.594 25.7297C103.032 14.1679 87.351 7.67248 71 7.67248ZM71 127.764C59.4416 127.764 48.1428 124.337 38.5323 117.915C28.9218 111.494 21.4314 102.367 17.0082 91.688C12.585 81.0094 11.4277 69.259 13.6826 57.9227C15.9375 46.5864 21.5034 36.1733 29.6765 28.0003C37.8495 19.8272 48.2626 14.2613 59.5989 12.0064C70.9352 9.75147 82.6856 10.9088 93.3642 15.332C104.043 19.7552 113.17 27.2457 119.591 36.8561C126.013 46.4666 129.44 57.7654 129.44 69.3238C129.44 84.8232 123.283 99.6877 112.324 110.647C101.364 121.607 86.4994 127.764 71 127.764Z" fill="url(#paint3_radial_4085_1115)" style="mix-blend-mode:color-dodge"/>
<path d="M71 7.67248C58.8065 7.67248 46.8869 11.2883 36.7484 18.0626C26.6098 24.8369 18.7078 34.4656 14.0416 45.7309C9.37535 56.9962 8.15444 69.3922 10.5333 81.3514C12.9121 93.3106 18.7838 104.296 27.4059 112.918C36.028 121.54 47.0132 127.412 58.9724 129.791C70.9316 132.169 83.3277 130.949 94.593 126.282C105.858 121.616 115.487 113.714 122.261 103.576C129.036 93.437 132.651 81.5173 132.651 69.3238C132.651 52.9729 126.156 37.2916 114.594 25.7297C103.032 14.1679 87.351 7.67248 71 7.67248ZM71 127.764C59.4416 127.764 48.1428 124.337 38.5323 117.915C28.9218 111.494 21.4314 102.367 17.0082 91.688C12.585 81.0094 11.4277 69.259 13.6826 57.9227C15.9375 46.5864 21.5034 36.1733 29.6765 28.0003C37.8495 19.8272 48.2626 14.2613 59.5989 12.0064C70.9352 9.75147 82.6856 10.9088 93.3642 15.332C104.043 19.7552 113.17 27.2457 119.591 36.8561C126.013 46.4666 129.44 57.7654 129.44 69.3238C129.44 84.8232 123.283 99.6877 112.324 110.647C101.364 121.607 86.4994 127.764 71 127.764Z" stroke="#231F20" stroke-width="0.719266" stroke-miterlimit="10"/>
</g>
<path d="M81.6671 60.9431L78.2827 64.3275C80.3006 65.7845 81.8048 67.8435 82.5791 70.2089C83.3535 72.5742 83.3583 75.1242 82.5927 77.4924C81.8271 79.8606 80.3306 81.9252 78.3181 83.3897C76.3056 84.8541 73.8808 85.643 71.3919 85.643C68.903 85.643 66.4781 84.8541 64.4656 83.3897C62.4532 81.9252 60.9567 79.8606 60.1911 77.4924C59.4255 75.1242 59.4302 72.5742 60.2046 70.2089C60.979 67.8435 62.4831 65.7845 64.501 64.3275L61.1231 60.9431C58.4396 63.0752 56.4858 65.9893 55.5326 69.2814C54.5793 72.5736 54.6738 76.0807 55.8029 79.3168C56.932 82.5529 59.0397 85.3575 61.8341 87.3421C64.6284 89.3267 67.9709 90.3929 71.3983 90.3929C74.8257 90.3929 78.1682 89.3267 80.9625 87.3421C83.7568 85.3575 85.8646 82.5529 86.9937 79.3168C88.1228 76.0807 88.2173 72.5736 87.264 69.2814C86.3107 65.9893 84.357 63.0752 81.6735 60.9431H81.6671Z" fill="#6D6D85"/>
<path d="M74.0698 71.0032V53.4904C74.0698 52.0131 72.8722 50.8156 71.395 50.8156C69.9177 50.8156 68.7202 52.0131 68.7202 53.4904V71.0032C68.7202 72.4804 69.9177 73.678 71.395 73.678C72.8722 73.678 74.0698 72.4804 74.0698 71.0032Z" fill="#6D6D85"/>
<defs>
<radialGradient id="paint0_radial_4085_1115" cx="0" cy="0" r="1" gradientUnits="userSpaceOnUse" gradientTransform="translate(71 71) scale(70)">
<stop stop-color="#1A1A1A"/>
<stop offset="1"/>
</radialGradient>
<radialGradient id="paint1_radial_4085_1115" cx="0" cy="0" r="1" gradientUnits="userSpaceOnUse" gradientTransform="translate(71.0001 69.3238) scale(66.0247)">
<stop offset="0.79" stop-color="#08080E"/>
<stop offset="0.9" stop-color="#424253"/>
<stop offset="1" stop-color="#010102"/>
</radialGradient>
<radialGradient id="paint2_radial_4085_1115" cx="0" cy="0" r="1" gradientUnits="userSpaceOnUse" gradientTransform="translate(71 110.039) scale(90.7367)">
<stop stop-color="#1A1A1A"/>
<stop offset="1"/>
</radialGradient>
<radialGradient id="paint3_radial_4085_1115" cx="0" cy="0" r="1" gradientUnits="userSpaceOnUse" gradientTransform="translate(71 69.3238) scale(61.6514)">
<stop offset="0.79"/>
<stop offset="0.9" stop-color="white"/>
<stop offset="1"/>
</radialGradient>
</defs>
</svg>
